# xmcd
#
# Track frame offsets:
#	150
#	13202
#	26600
#	42821
#	55421
#	73785
#	86992
#	100084
#	112327
#	124953
#	140420
#	155651
#	167524
#	180662
#	196208
#	208159
#	218468
#	245516
#
# Disc length: 3501 seconds
#
# Revision: 1
# Processed by: cddbd v1.5.2PL0 Copyright (c) Steve Scherf et al.
# Submitted via: audiograbber 1.83.01
#
DISCID=0b0dab12
DTITLE=ensemble six - Gehst du mit nach Honolulu
DYEAR=2000
DGENRE=A Cappella
TTITLE0=Wer sich die Welt mit einem Donnerschlag erobern will
TTITLE1=In Turkestan
TTITLE2=Wenn der Bobby und die Lisa
TTITLE3=Ich bin verrückt nach Hilde
TTITLE4=Es ist so difficil
TTITLE5=Klagelied an die lange Anna
TTITLE6=Mein Bruder macht im Tonfilm die Geräusche
TTITLE7=So meschugge
TTITLE8=Flieger, grüß mir die Sonne
TTITLE9=Hauptpostlagernd
TTITLE10=Die Sonja vom Ural
TTITLE11=Ich wollt ich wär' ein Huhn
TTITLE12=Schade
TTITLE13=Heute Nacht oder nie
TTITLE14=I'm gonna Charleston back to Charleston
TTITLE15=Gehst du mit nach Honolulu
TTITLE16=Irgendwo auf der Welt
TTITLE17=Daten-CD (Film - 'Turkestan.mpg')
EXTD=
EXTT0=
EXTT1=
EXTT2=
EXTT3=
EXTT4=
EXTT5=
EXTT6=
EXTT7=
EXTT8=
EXTT9=
EXTT10=
EXTT11=
EXTT12=
EXTT13=
EXTT14=
EXTT15=
EXTT16=
EXTT17=
PLAYORDER=
